<svg xmlns="http://www.w3.org/2000/svg" version="1.1" xmlns:xlink="http://www.w3.org/1999/xlink" xmlns:svgjs="http://svgjs.dev/svgjs" width="2000" height="1500" viewBox="0 0 2000 1500"><rect width="2000" height="1500" fill="#ffffff"></rect><g transform="matrix(0.75,0,0,0.75,249.090909090909,449.92333867007665)"><svg viewBox="0 0 396 158" data-background-color="#ffffff" preserveAspectRatio="xMidYMid meet" height="797" width="2000" xmlns="http://www.w3.org/2000/svg" xmlns:xlink="http://www.w3.org/1999/xlink"><g id="tight-bounds" transform="matrix(1,0,0,1,0.2400000000000091,0.31762859076185634)"><svg viewBox="0 0 395.52 157.3647428184763" height="157.3647428184763" width="395.52"><g><svg viewBox="0 0 395.52 157.3647428184763" height="157.3647428184763" width="395.52"><g transform="matrix(1,0,0,1,0,97.25772422219555)"><svg viewBox="0 0 395.52 60.10701859628073" height="60.10701859628073" width="395.52"><g id="textblocktransform"><svg viewBox="0 0 395.52 60.10701859628073" height="60.10701859628073" width="395.52" id="textblock"><g><svg viewBox="0 0 395.52 60.10701859628073" height="60.10701859628073" width="395.52"><g transform="matrix(1,0,0,1,0,0)"><svg width="395.52" viewBox="0.05 -37.5 250.03 38" height="60.10701859628073" data-palette-color="#000000"><path d="M7.95 0L0.05 0 0.05-1.7 3.05-1.7 3.05-35.3 0.05-35.3 0.05-37 4.95-37 12.2-5.8 19.45-37 25.1-37 25.1-35.3 21.9-35.3 21.9-1.7 25.1-1.7 25.1 0 15.8 0 15.8-1.7 18.5-1.7 18.5-26.3 12.4 0 10.85 0 4.75-26.3 4.75-1.7 7.95-1.7 7.95 0ZM47.5 0L27.6 0 27.6-1.7 35.8-1.7 35.8-35.3 27.6-35.3 27.6-37 47.5-37 47.5-35.3 39.3-35.3 39.3-1.7 47.5-1.7 47.5 0ZM58.95 0L50.8 0 50.8-1.7 54.35-1.7 60.65-18.15 54.05-35.3 50.5-35.3 50.5-37 61.15-37 61.15-35.3 57.65-35.3 62.7-22.15 67.75-35.3 65-35.3 65-37 72.9-37 72.9-35.3 69.34-35.3 63.5-20.1 70.59-1.7 74.15-1.7 74.15 0 63.15 0 63.15-1.7 67-1.7 61.45-16.05 55.95-1.7 58.95-1.7 58.95 0ZM87.49 0.5L87.49 0.5Q84.94 0.5 83.02-1.1 81.09-2.7 79.82-5.43 78.54-8.15 77.89-11.55 77.24-14.95 77.24-18.5L77.24-18.5Q77.24-22.05 77.89-25.45 78.54-28.85 79.82-31.58 81.09-34.3 83.02-35.9 84.94-37.5 87.49-37.5L87.49-37.5Q90.04-37.5 91.97-35.9 93.89-34.3 95.17-31.58 96.44-28.85 97.09-25.45 97.74-22.05 97.74-18.5L97.74-18.5Q97.74-14.95 97.09-11.55 96.44-8.15 95.17-5.43 93.89-2.7 91.97-1.1 90.04 0.5 87.49 0.5ZM87.49-1.35L87.49-1.35Q90.44-1.35 91.99-3.65 93.54-5.95 93.54-10.25L93.54-10.25 93.54-26.75Q93.54-31.05 91.99-33.35 90.44-35.65 87.49-35.65L87.49-35.65Q84.59-35.65 83.02-33.35 81.44-31.05 81.44-26.75L81.44-26.75 81.44-10.25Q81.44-5.95 82.99-3.65 84.54-1.35 87.49-1.35ZM122.59 0L101.54 0 101.54-1.7 105.74-1.7 105.74-35.3 101.54-35.3 101.54-37 113.44-37 113.44-35.3 109.24-35.3 109.24-1.75 116.34-1.75Q119.99-1.75 120.44-5.4L120.44-5.4 121.19-11.7 122.59-11.7 122.59 0ZM137.49 0.5L137.49 0.5Q134.94 0.5 133.01-1.1 131.09-2.7 129.81-5.43 128.54-8.15 127.89-11.55 127.24-14.95 127.24-18.5L127.24-18.5Q127.24-22.05 127.89-25.45 128.54-28.85 129.81-31.58 131.09-34.3 133.01-35.9 134.94-37.5 137.49-37.5L137.49-37.5Q140.04-37.5 141.96-35.9 143.89-34.3 145.16-31.58 146.44-28.85 147.09-25.45 147.74-22.05 147.74-18.5L147.74-18.5Q147.74-14.95 147.09-11.55 146.44-8.15 145.16-5.43 143.89-2.7 141.96-1.1 140.04 0.5 137.49 0.5ZM137.49-1.35L137.49-1.35Q140.44-1.35 141.99-3.65 143.54-5.95 143.54-10.25L143.54-10.25 143.54-26.75Q143.54-31.05 141.99-33.35 140.44-35.65 137.49-35.65L137.49-35.65Q134.59-35.65 133.01-33.35 131.44-31.05 131.44-26.75L131.44-26.75 131.44-10.25Q131.44-5.95 132.99-3.65 134.54-1.35 137.49-1.35ZM162.44 0.5L162.44 0.5Q160.19 0.5 158.36-0.95 156.54-2.4 155.21-5 153.89-7.6 153.16-11.03 152.44-14.45 152.44-18.4L152.44-18.4Q152.44-22 153.09-25.4 153.74-28.8 155.04-31.55 156.34-34.3 158.29-35.9 160.24-37.5 162.89-37.5L162.89-37.5Q164.74-37.5 166.06-36.68 167.39-35.85 168.21-34.7 169.04-33.55 169.29-32.45L169.29-32.45 169.69-32.45 169.69-37 171.29-37 171.29-24.4 168.69-24.4 168.69-25.55Q168.69-29.4 167.81-31.6 166.94-33.8 165.54-34.73 164.14-35.65 162.54-35.65L162.54-35.65Q159.79-35.65 158.21-33.35 156.64-31.05 156.64-26.75L156.64-26.75 156.64-10.25Q156.64-5.95 158.19-3.65 159.74-1.35 162.34-1.35L162.34-1.35Q164.44-1.35 165.69-2.7 166.94-4.05 167.56-6.2 168.19-8.35 168.39-10.78 168.59-13.2 168.59-15.35L168.59-15.35 168.59-18.5 160.29-18.5 160.29-20.2 171.39-20.2 171.39 0 169.64 0 169.64-6 169.19-6Q168.94-4.6 168.14-3.1 167.34-1.6 165.91-0.55 164.49 0.5 162.44 0.5ZM197.48 0L177.58 0 177.58-1.7 185.78-1.7 185.78-35.3 177.58-35.3 177.58-37 197.48-37 197.48-35.3 189.28-35.3 189.28-1.7 197.48-1.7 197.48 0ZM224.43-35.3L219.23-35.3 219.23-9 219.23-9Q219.08-4.4 216.21-1.95 213.33 0.5 209.03 0.5L209.03 0.5Q205.68 0.5 203.83-0.83 201.98-2.15 201.98-3.9L201.98-3.9Q201.98-4.9 202.56-5.55 203.13-6.2 204.23-6.2L204.23-6.2Q205.23-6.2 205.83-5.75 206.43-5.3 206.76-4.73 207.08-4.15 207.23-3.8L207.23-3.8 208.53-0.95Q211.68-0.7 213.71-2.65 215.73-4.6 215.73-8.9L215.73-8.9 215.73-35.3 207.13-35.3 207.13-37 224.43-37 224.43-35.3ZM232.83 0L224.93 0 224.93-1.7 227.58-1.7 236.23-37 238.23-37 246.88-1.7 250.08-1.7 250.08 0 238.28 0 238.28-1.7 243.33-1.7 240.43-13.55 232.18-13.55 229.33-1.7 232.83-1.7 232.83 0ZM240.03-15.15L236.28-30.6 232.58-15.15 240.03-15.15Z" opacity="1" transform="matrix(1,0,0,1,0,0)" fill="#000000" class="wordmark-text-0" data-fill-palette-color="primary" id="text-0"></path></svg></g></svg></g></svg></g></svg></g><g transform="matrix(1,0,0,1,156.22605014997,0)"><svg viewBox="0 0 83.06789970005998 83.06789970005998" height="83.06789970005998" width="83.06789970005998"><g><svg xmlns="http://www.w3.org/2000/svg" xmlns:xlink="http://www.w3.org/1999/xlink" version="1.1" x="0" y="0" viewBox="5 5 90 90" enable-background="new 0 0 100 100" xml:space="preserve" height="83.06789970005998" width="83.06789970005998" class="icon-icon-0" data-fill-palette-color="accent" id="icon-0"><path d="M84.3 5.7C83.8 5.3 83.2 5 82.5 5H17.5C16.8 5 16.2 5.3 15.7 5.7L5.7 15.7C5.3 16.2 5 16.8 5 17.5V82.5C5 83.2 5.3 83.8 5.7 84.3L15.7 94.3C16.2 94.8 16.8 95 17.5 95H82.5C83.2 95 83.8 94.7 84.3 94.3L94.3 84.3C94.8 83.8 95 83.2 95 82.5V17.5C95 16.8 94.7 16.2 94.3 15.7zM86.3 76.1V23.9L90 21V79zM10 79V21L13.8 23.9V76zM16.3 25.9L21.3 29.8V70.2L16.3 74.1zM70.1 33.3L66.7 29.9 70.6 24.9 75.2 29.5zM35.6 71.3H64.4L68.3 76.3H31.7zM64.5 68.8H35.5L31.2 64.5V35.5L35.5 31.2H64.5L68.8 35.5V64.5zM64.4 28.8H35.6L31.7 23.8H68.3zM70.2 21.3H29.8L25.9 16.3H74.1zM33.3 29.9L29.9 33.3 24.9 29.4 29.5 24.8zM28.8 35.6V64.4L23.8 68.3V31.7zM29.9 66.7L33.3 70.1 29.4 75.1 24.8 70.5zM29.8 78.7H70.2L74.1 83.7H25.9zM66.7 70.1L70.1 66.7 75.1 70.6 70.5 75.2zM71.3 64.4V35.6L76.3 31.7V68.3zM77.1 27.9L72.1 22.9 76.6 17.2 82.9 23.5zM76.1 13.8H23.9L21 10H79zM27.9 22.9L22.9 27.9 16.5 22.9 22.9 16.5zM22.9 72.1L27.9 77.1 22.9 83.5 16.5 77.1zM23.9 86.3H76L79 90H21zM72.1 77.1L77.1 72.1 83.5 77.1 77.1 83.5zM78.7 70.2V29.8L83.7 25.9V74.1zM89.6 18.2L84.8 21.9 78.1 15.2 81.8 10.4zM18.2 10.4L21.3 14.4 14.4 21.3 10.4 18.2zM10.4 81.8L14.4 78.7 21.3 85.6 18.2 89.6zM81.8 89.6L78.7 85.6 85.6 78.7 89.6 81.8z" fill="#000000" data-fill-palette-color="accent"></path></svg></g></svg></g><g></g></svg></g><defs></defs></svg><rect width="395.52" height="157.3647428184763" fill="none" stroke="none" visibility="hidden"></rect></g></svg></g></svg>